<svg width="30" height="30" viewBox="0 0 30 30" fill="none" xmlns="http://www.w3.org/2000/svg">
<path d="M26.2538 0.833252H3.59045C1.85207 0.833252 0.5 2.24971 0.5 3.92371V26.587C0.5 28.3254 1.85207 29.6775 3.59045 29.6775H12.4111V19.8911H8.3549V15.2554H12.4111V11.7786C12.4111 7.78677 14.7934 5.53332 18.3989 5.53332C20.2016 5.53332 22.0044 5.85524 22.0044 5.85524V9.78269H20.0085C18.0126 9.78269 17.3687 11.006 17.3687 12.2937V15.2554H21.8113L21.103 19.8911H17.3687V29.6775H26.2538C27.9278 29.6775 29.3442 28.3254 29.3442 26.587V3.92371C29.3442 2.24971 27.9278 0.833252 26.2538 0.833252Z" fill="#029894"/>
</svg>
