<svg width="29" height="29" viewBox="0 0 29 29" fill="none" xmlns="http://www.w3.org/2000/svg">
<path d="M14.4221 11.0461C11.718 11.0461 10.1084 13.9434 11.396 16.1969C12.7481 18.5147 16.0317 18.5147 17.3838 16.1969C17.6413 15.6818 17.8345 15.1023 17.8345 14.4585C17.8345 12.5913 16.2893 11.0461 14.4221 11.0461ZM22.4058 8.40636C22.0839 7.50497 21.3756 6.79675 20.4743 6.47482C19.1222 5.89536 15.903 6.02413 14.4221 6.02413C12.8769 6.02413 9.65767 5.89536 8.3056 6.47482C7.40421 6.79675 6.69598 7.50497 6.37406 8.40636C5.85899 9.75843 5.92337 12.9777 5.92337 14.4585C5.92337 16.0037 5.85899 19.2229 6.37406 20.575C6.69598 21.4764 7.40421 22.1846 8.3056 22.5066C9.65767 23.086 12.8769 22.9572 14.4221 22.9572C15.903 22.9572 19.1222 23.086 20.4743 22.5066C21.3756 22.1846 22.0839 21.4764 22.4058 20.575C22.9853 19.2229 22.8565 16.0037 22.8565 14.4585C22.8565 12.9777 22.9853 9.75843 22.4058 8.40636ZM14.4221 19.738C10.3015 19.738 7.79052 15.3599 9.78644 11.8187C11.8467 8.34197 16.9331 8.34197 18.9934 11.8187C19.4441 12.6557 19.7016 13.5571 19.7016 14.4585C19.7016 17.4202 17.3194 19.8024 14.4221 19.738ZM19.8948 10.2091C18.929 10.2091 18.3496 9.17897 18.8003 8.34197C19.3153 7.56936 20.4743 7.56936 20.9249 8.34197C21.0537 8.53513 21.1181 8.79266 21.1181 8.98582C21.1181 9.69405 20.5386 10.2091 19.8948 10.2091ZM25.7538 0.036377H3.09045C1.35207 0.036377 0 1.45284 0 3.12683V25.7902C0 27.5285 1.35207 28.8806 3.09045 28.8806H25.7538C27.4278 28.8806 28.8442 27.5285 28.8442 25.7902V3.12683C28.8442 1.45284 27.4278 0.036377 25.7538 0.036377ZM24.5949 18.7079C24.5305 20.3819 24.1442 21.8627 22.9853 23.0216C21.7619 24.2449 20.2811 24.6312 18.6715 24.6956C16.9331 24.8244 11.8467 24.8244 10.1727 24.6956C8.49875 24.6312 7.01791 24.2449 5.85899 23.0216C4.63568 21.8627 4.24937 20.3819 4.18499 18.7079C4.05622 17.0339 4.05622 11.9475 4.18499 10.2091C4.24937 8.59951 4.63568 7.11867 5.85899 5.89536C7.01791 4.73644 8.49875 4.35014 10.1727 4.28575C11.8467 4.15698 16.9331 4.15698 18.6715 4.28575C20.2811 4.35014 21.7619 4.73644 22.9853 5.95975C24.1442 7.11867 24.5305 8.59951 24.5949 10.2735C24.7236 11.9475 24.7236 17.0339 24.5949 18.7079Z" fill="#029894"/>
</svg>
