<svg width="29" height="29" viewBox="0 0 29 29" fill="none" xmlns="http://www.w3.org/2000/svg">
<path d="M26.7839 0.036377H1.99592C0.901382 0.036377 0 1.00214 0 2.16106V26.8203C0 27.9792 0.901382 28.8806 1.99592 28.8806H26.7839C27.8785 28.8806 28.8442 27.9792 28.8442 26.8203V2.16106C28.8442 1.00214 27.8785 0.036377 26.7839 0.036377ZM8.6919 24.76H4.44253V11.0461H8.6919V24.76ZM6.56721 9.11459C5.15076 9.11459 4.05622 8.02005 4.05622 6.66798C4.05622 5.3159 5.15076 4.15698 6.56721 4.15698C7.91929 4.15698 9.01382 5.3159 9.01382 6.66798C9.01382 8.02005 7.91929 9.11459 6.56721 9.11459ZM24.7236 24.76H20.4099V18.064C20.4099 16.5188 20.4099 14.4585 18.2208 14.4585C15.9673 14.4585 15.6454 16.1969 15.6454 17.9996V24.76H11.396V11.0461H15.4523V12.9133H15.5167C16.0961 11.8187 17.5126 10.6598 19.5729 10.6598C23.8866 10.6598 24.7236 13.5571 24.7236 17.227V24.76Z" fill="#029894"/>
</svg>
