<svg width="67" height="62" viewBox="0 0 67 62" fill="none" xmlns="http://www.w3.org/2000/svg">
<path d="M9.90039 44.5273C9.76367 44.5046 9.61556 44.4932 9.45605 44.4932C8.86361 44.4932 8.46159 44.7454 8.25 45.25V49H7.34668V43.7168H8.22559L8.24023 44.3271C8.53646 43.8551 8.95638 43.6191 9.5 43.6191C9.67578 43.6191 9.80924 43.6419 9.90039 43.6875V44.5273Z" fill="#555555"/>
<path d="M12.8301 49.0977C12.1139 49.0977 11.5312 48.8633 11.082 48.3945C10.6328 47.9225 10.4082 47.2926 10.4082 46.5049V46.3389C10.4082 45.8148 10.5075 45.3477 10.7061 44.9375C10.9079 44.5241 11.1878 44.2018 11.5459 43.9707C11.9072 43.7363 12.2979 43.6191 12.7178 43.6191C13.4046 43.6191 13.9385 43.8454 14.3193 44.2979C14.7002 44.7503 14.8906 45.3981 14.8906 46.2412V46.6172H11.3115C11.3245 47.138 11.4759 47.5596 11.7656 47.8818C12.0586 48.2008 12.4297 48.3604 12.8789 48.3604C13.1979 48.3604 13.4681 48.2952 13.6895 48.165C13.9108 48.0348 14.1045 47.8623 14.2705 47.6475L14.8223 48.0771C14.3796 48.7575 13.7155 49.0977 12.8301 49.0977ZM12.7178 44.3613C12.3532 44.3613 12.0472 44.4948 11.7998 44.7617C11.5524 45.0254 11.3994 45.3965 11.3408 45.875H13.9873V45.8066C13.9613 45.3477 13.8376 44.9928 13.6162 44.7422C13.3949 44.4883 13.0954 44.3613 12.7178 44.3613Z" fill="#555555"/>
<path d="M21.3115 46.7441C21.2236 47.4961 20.9453 48.0771 20.4766 48.4873C20.0111 48.8942 19.391 49.0977 18.6162 49.0977C17.7764 49.0977 17.1025 48.7965 16.5947 48.1943C16.0902 47.5921 15.8379 46.7865 15.8379 45.7773V45.0938C15.8379 44.4329 15.9551 43.8519 16.1895 43.3506C16.4271 42.8493 16.7624 42.4652 17.1953 42.1982C17.6283 41.9281 18.1296 41.793 18.6992 41.793C19.4544 41.793 20.0599 42.0046 20.5156 42.4277C20.9714 42.8477 21.2367 43.4303 21.3115 44.1758H20.3691C20.2878 43.6094 20.1104 43.1992 19.8369 42.9453C19.5667 42.6914 19.1875 42.5645 18.6992 42.5645C18.1003 42.5645 17.6299 42.7858 17.2881 43.2285C16.9495 43.6712 16.7803 44.3011 16.7803 45.1182V45.8066C16.7803 46.5781 16.9414 47.1917 17.2637 47.6475C17.5859 48.1032 18.0368 48.3311 18.6162 48.3311C19.137 48.3311 19.5358 48.2139 19.8125 47.9795C20.0924 47.7419 20.278 47.3301 20.3691 46.7441H21.3115Z" fill="#555555"/>
<path d="M26.5215 47.1445H23.543L22.874 49H21.9072L24.6221 41.8906H25.4424L28.1621 49H27.2002L26.5215 47.1445ZM23.8262 46.373H26.2432L25.0322 43.0479L23.8262 46.373Z" fill="#555555"/>
<path d="M30.0566 46.2168V49H29.1191V41.8906H31.7412C32.5192 41.8906 33.1279 42.0892 33.5674 42.4863C34.0101 42.8835 34.2314 43.4092 34.2314 44.0635C34.2314 44.7536 34.015 45.2858 33.582 45.6602C33.1523 46.0312 32.5355 46.2168 31.7314 46.2168H30.0566ZM30.0566 45.4502H31.7412C32.2425 45.4502 32.6266 45.333 32.8936 45.0986C33.1605 44.861 33.2939 44.5192 33.2939 44.0732C33.2939 43.6501 33.1605 43.3115 32.8936 43.0576C32.6266 42.8037 32.2604 42.6719 31.7949 42.6621H30.0566V45.4502Z" fill="#555555"/>
<path d="M40.3398 42.6621H38.0547V49H37.1221V42.6621H34.8418V41.8906H40.3398V42.6621Z" fill="#555555"/>
<path d="M46.4873 46.7441C46.3994 47.4961 46.1211 48.0771 45.6523 48.4873C45.1868 48.8942 44.5667 49.0977 43.792 49.0977C42.9521 49.0977 42.2783 48.7965 41.7705 48.1943C41.2659 47.5921 41.0137 46.7865 41.0137 45.7773V45.0938C41.0137 44.4329 41.1309 43.8519 41.3652 43.3506C41.6029 42.8493 41.9382 42.4652 42.3711 42.1982C42.804 41.9281 43.3053 41.793 43.875 41.793C44.6302 41.793 45.2357 42.0046 45.6914 42.4277C46.1471 42.8477 46.4124 43.4303 46.4873 44.1758H45.5449C45.4635 43.6094 45.2861 43.1992 45.0127 42.9453C44.7425 42.6914 44.3633 42.5645 43.875 42.5645C43.276 42.5645 42.8057 42.7858 42.4639 43.2285C42.1253 43.6712 41.9561 44.3011 41.9561 45.1182V45.8066C41.9561 46.5781 42.1172 47.1917 42.4395 47.6475C42.7617 48.1032 43.2126 48.3311 43.792 48.3311C44.3128 48.3311 44.7116 48.2139 44.9883 47.9795C45.2682 47.7419 45.4538 47.3301 45.5449 46.7441H46.4873Z" fill="#555555"/>
<path d="M53.2354 49H52.293V45.7139H48.709V49H47.7715V41.8906H48.709V44.9473H52.293V41.8906H53.2354V49Z" fill="#555555"/>
<path d="M58.9141 47.1445H55.9355L55.2666 49H54.2998L57.0146 41.8906H57.835L60.5547 49H59.5928L58.9141 47.1445ZM56.2188 46.373H58.6357L57.4248 43.0479L56.2188 46.373Z" fill="#555555"/>
<path d="M6.41309 57.5391V59.7656H5.66309V54.0781H7.76074C8.38314 54.0781 8.87012 54.237 9.22168 54.5547C9.57585 54.8724 9.75293 55.293 9.75293 55.8164C9.75293 56.3685 9.57975 56.7943 9.2334 57.0938C8.88965 57.3906 8.39616 57.5391 7.75293 57.5391H6.41309ZM6.41309 56.9258H7.76074C8.16178 56.9258 8.46908 56.832 8.68262 56.6445C8.89616 56.4544 9.00293 56.181 9.00293 55.8242C9.00293 55.4857 8.89616 55.2148 8.68262 55.0117C8.46908 54.8086 8.17611 54.7031 7.80371 54.6953H6.41309V56.9258Z" fill="#555555"/>
<path d="M12.6396 56.1875C12.5303 56.1693 12.4118 56.1602 12.2842 56.1602C11.8102 56.1602 11.4886 56.362 11.3193 56.7656V59.7656H10.5967V55.5391H11.2998L11.3115 56.0273C11.5485 55.6497 11.8844 55.4609 12.3193 55.4609C12.46 55.4609 12.5667 55.4792 12.6396 55.5156V56.1875Z" fill="#555555"/>
<path d="M14.0928 59.7656H13.3701V55.5391H14.0928V59.7656ZM13.3115 54.418C13.3115 54.3008 13.3467 54.2018 13.417 54.1211C13.4899 54.0404 13.5967 54 13.7373 54C13.8779 54 13.9847 54.0404 14.0576 54.1211C14.1305 54.2018 14.167 54.3008 14.167 54.418C14.167 54.5352 14.1305 54.6328 14.0576 54.7109C13.9847 54.7891 13.8779 54.8281 13.7373 54.8281C13.5967 54.8281 13.4899 54.7891 13.417 54.7109C13.3467 54.6328 13.3115 54.5352 13.3115 54.418Z" fill="#555555"/>
<path d="M16.6475 58.7852L17.6943 55.5391H18.4326L16.917 59.7656H16.3662L14.835 55.5391H15.5732L16.6475 58.7852Z" fill="#555555"/>
<path d="M21.6748 59.7656C21.6331 59.6823 21.5993 59.5339 21.5732 59.3203C21.2373 59.6693 20.8363 59.8438 20.3701 59.8438C19.9535 59.8438 19.611 59.7266 19.3428 59.4922C19.0771 59.2552 18.9443 58.9557 18.9443 58.5938C18.9443 58.1536 19.111 57.8125 19.4443 57.5703C19.7803 57.3255 20.2516 57.2031 20.8584 57.2031H21.5615V56.8711C21.5615 56.6185 21.486 56.418 21.335 56.2695C21.1839 56.1185 20.9613 56.043 20.667 56.043C20.4092 56.043 20.193 56.1081 20.0186 56.2383C19.8441 56.3685 19.7568 56.526 19.7568 56.7109H19.0303C19.0303 56.5 19.1045 56.2969 19.2529 56.1016C19.404 55.9036 19.6071 55.7474 19.8623 55.6328C20.1201 55.5182 20.4027 55.4609 20.71 55.4609C21.1969 55.4609 21.5785 55.5833 21.8545 55.8281C22.1305 56.0703 22.2738 56.4049 22.2842 56.832V58.7773C22.2842 59.1654 22.3337 59.474 22.4326 59.7031V59.7656H21.6748ZM20.4756 59.2148C20.7021 59.2148 20.917 59.1562 21.1201 59.0391C21.3232 58.9219 21.4704 58.7695 21.5615 58.582V57.7148H20.9951C20.1097 57.7148 19.667 57.974 19.667 58.4922C19.667 58.7188 19.7425 58.8958 19.8936 59.0234C20.0446 59.151 20.2386 59.2148 20.4756 59.2148Z" fill="#555555"/>
<path d="M25.1123 59.2539C25.3701 59.2539 25.5954 59.1758 25.7881 59.0195C25.9808 58.8633 26.0876 58.668 26.1084 58.4336H26.792C26.779 58.6758 26.6956 58.9062 26.542 59.125C26.3883 59.3438 26.1826 59.5182 25.9248 59.6484C25.6696 59.7786 25.3988 59.8438 25.1123 59.8438C24.5368 59.8438 24.0785 59.6523 23.7373 59.2695C23.3988 58.8841 23.2295 58.3581 23.2295 57.6914V57.5703C23.2295 57.1589 23.305 56.793 23.4561 56.4727C23.6071 56.1523 23.8232 55.9036 24.1045 55.7266C24.3883 55.5495 24.723 55.4609 25.1084 55.4609C25.5824 55.4609 25.9756 55.6029 26.2881 55.8867C26.6032 56.1706 26.7712 56.5391 26.792 56.9922H26.1084C26.0876 56.7188 25.9834 56.4948 25.7959 56.3203C25.611 56.1432 25.3818 56.0547 25.1084 56.0547C24.7412 56.0547 24.4561 56.1875 24.2529 56.4531C24.0524 56.7161 23.9521 57.0977 23.9521 57.5977V57.7344C23.9521 58.2214 24.0524 58.5964 24.2529 58.8594C24.4535 59.1224 24.7399 59.2539 25.1123 59.2539Z" fill="#555555"/>
<path d="M28.9873 58.707L29.9717 55.5391H30.7451L29.0459 60.418C28.7829 61.1211 28.3649 61.4727 27.792 61.4727L27.6553 61.4609L27.3857 61.4102V60.8242L27.5811 60.8398C27.8258 60.8398 28.016 60.7904 28.1514 60.6914C28.2894 60.5924 28.4027 60.4115 28.4912 60.1484L28.6514 59.7188L27.1436 55.5391H27.9326L28.9873 58.707Z" fill="#555555"/>
<path d="M43.5928 54.6953H41.7646V59.7656H41.0186V54.6953H39.1943V54.0781H43.5928V54.6953Z" fill="#555555"/>
<path d="M45.6865 59.8438C45.1136 59.8438 44.6475 59.6562 44.2881 59.2812C43.9287 58.9036 43.749 58.3997 43.749 57.7695V57.6367C43.749 57.2174 43.8284 56.8438 43.9873 56.5156C44.1488 56.1849 44.3727 55.9271 44.6592 55.7422C44.9482 55.5547 45.2607 55.4609 45.5967 55.4609C46.1462 55.4609 46.5732 55.6419 46.8779 56.0039C47.1826 56.3659 47.335 56.8841 47.335 57.5586V57.8594H44.4717C44.4821 58.276 44.6032 58.6133 44.835 58.8711C45.0693 59.1263 45.3662 59.2539 45.7256 59.2539C45.9808 59.2539 46.1969 59.2018 46.374 59.0977C46.5511 58.9935 46.7061 58.8555 46.8389 58.6836L47.2803 59.0273C46.9261 59.5716 46.3949 59.8438 45.6865 59.8438ZM45.5967 56.0547C45.305 56.0547 45.0602 56.1615 44.8623 56.375C44.6644 56.5859 44.542 56.8828 44.4951 57.2656H46.6123V57.2109C46.5915 56.8438 46.4925 56.5599 46.3154 56.3594C46.1383 56.1562 45.8988 56.0547 45.5967 56.0547Z" fill="#555555"/>
<path d="M50.2178 56.1875C50.1084 56.1693 49.9899 56.1602 49.8623 56.1602C49.3883 56.1602 49.0667 56.362 48.8975 56.7656V59.7656H48.1748V55.5391H48.8779L48.8896 56.0273C49.1266 55.6497 49.4626 55.4609 49.8975 55.4609C50.0381 55.4609 50.1449 55.4792 50.2178 55.5156V56.1875Z" fill="#555555"/>
<path d="M51.5654 55.5391L51.585 56.0078C51.8949 55.6432 52.3128 55.4609 52.8389 55.4609C53.43 55.4609 53.8324 55.6875 54.0459 56.1406C54.1865 55.9375 54.3688 55.7734 54.5928 55.6484C54.8193 55.5234 55.0863 55.4609 55.3936 55.4609C56.3206 55.4609 56.792 55.9518 56.8076 56.9336V59.7656H56.085V56.9766C56.085 56.6745 56.0159 56.4492 55.8779 56.3008C55.7399 56.1497 55.5081 56.0742 55.1826 56.0742C54.9144 56.0742 54.6917 56.1549 54.5146 56.3164C54.3376 56.4753 54.2347 56.6901 54.2061 56.9609V59.7656H53.4795V56.9961C53.4795 56.3815 53.1787 56.0742 52.5771 56.0742C52.1032 56.0742 51.779 56.276 51.6045 56.6797V59.7656H50.8818V55.5391H51.5654Z" fill="#555555"/>
<path d="M60.3623 58.6445C60.3623 58.4492 60.2881 58.2982 60.1396 58.1914C59.9938 58.082 59.7373 57.9883 59.3701 57.9102C59.0055 57.832 58.7152 57.7383 58.499 57.6289C58.2855 57.5195 58.1266 57.3893 58.0225 57.2383C57.9209 57.0872 57.8701 56.9076 57.8701 56.6992C57.8701 56.3529 58.0159 56.0599 58.3076 55.8203C58.6019 55.5807 58.9769 55.4609 59.4326 55.4609C59.9118 55.4609 60.2998 55.5846 60.5967 55.832C60.8962 56.0794 61.0459 56.3958 61.0459 56.7812H60.3193C60.3193 56.5833 60.2347 56.4128 60.0654 56.2695C59.8988 56.1263 59.6878 56.0547 59.4326 56.0547C59.1696 56.0547 58.9639 56.112 58.8154 56.2266C58.667 56.3411 58.5928 56.4909 58.5928 56.6758C58.5928 56.8503 58.6618 56.9818 58.7998 57.0703C58.9378 57.1589 59.1865 57.2435 59.5459 57.3242C59.9079 57.4049 60.2008 57.5013 60.4248 57.6133C60.6488 57.7253 60.8141 57.8607 60.9209 58.0195C61.0303 58.1758 61.085 58.3672 61.085 58.5938C61.085 58.9714 60.9339 59.2747 60.6318 59.5039C60.3298 59.7305 59.9378 59.8438 59.4561 59.8438C59.1175 59.8438 58.818 59.7839 58.5576 59.6641C58.2972 59.5443 58.0928 59.3776 57.9443 59.1641C57.7985 58.9479 57.7256 58.7148 57.7256 58.4648H58.4482C58.4613 58.707 58.5576 58.8997 58.7373 59.043C58.9196 59.1836 59.1592 59.2539 59.4561 59.2539C59.7295 59.2539 59.9482 59.1992 60.1123 59.0898C60.279 58.9779 60.3623 58.8294 60.3623 58.6445Z" fill="#555555"/>
<path d="M35.9912 57.9648H33.9404V57.1992H35.9912V57.9648Z" fill="black"/>
<g filter="url(#filter0_d_553_58)">
<path d="M45.0646 11.3378C44.9291 11.1691 44.7895 11.0031 44.646 10.84C42.3512 8.234 39.185 6.55399 35.7405 6.1147C32.296 5.67541 28.8095 6.50698 25.9341 8.45365L30.0506 14.5341C31.4466 13.589 33.1393 13.1853 34.8116 13.3985C36.4838 13.6118 38.021 14.4275 39.1351 15.6927C39.3849 15.9763 39.6095 16.2781 39.8077 16.5947L36.1639 20.2385H48.2732V8.12915L45.0646 11.3378Z" fill="#1C3AA9"/>
</g>
<g filter="url(#filter1_d_553_58)">
<path d="M33.9016 6.00049H21.7922L24.964 9.1723C22.5939 11.0878 20.8901 13.7199 20.1199 16.6902C19.2484 20.0514 19.6322 23.6151 21.1995 26.7137L27.7518 23.3995C26.9909 21.8952 26.8046 20.165 27.2277 18.5331C27.6508 16.9013 28.6544 15.4796 30.0504 14.5345C30.1055 14.4972 30.161 14.4608 30.217 14.4252L33.9016 18.1098V6.00049Z" fill="#4285F4"/>
</g>
<g filter="url(#filter2_d_553_58)">
<path d="M19.6631 20.3716H31.7724L28.1138 24.0302C28.8896 25.2318 30.0222 26.1693 31.3612 26.705C32.9265 27.3312 34.6663 27.3652 36.2548 26.8007C37.8434 26.2363 39.1716 25.112 39.9908 23.6385L45.2869 28.9213C43.6168 31.1132 41.3375 32.7873 38.7134 33.7197C35.4415 34.8824 31.8579 34.8123 28.6339 33.5225C26.366 32.6153 24.3855 31.1482 22.8647 29.2793L19.6631 32.4809V20.3716Z" fill="#ABABAB"/>
</g>
<defs>
<filter id="filter0_d_553_58" x="24.9341" y="5" width="24.3394" height="16.2383" filterUnits="userSpaceOnUse" color-interpolation-filters="sRGB">
<feFlood flood-opacity="0" result="BackgroundImageFix"/>
<feColorMatrix in="SourceAlpha" type="matrix" values="0 0 0 0 0 0 0 0 0 0 0 0 0 0 0 0 0 0 127 0" result="hardAlpha"/>
<feOffset/>
<feGaussianBlur stdDeviation="0.5"/>
<feColorMatrix type="matrix" values="0 0 0 0 0 0 0 0 0 0 0 0 0 0 0 0 0 0 0.38 0"/>
<feBlend mode="normal" in2="BackgroundImageFix" result="effect1_dropShadow_553_58"/>
<feBlend mode="normal" in="SourceGraphic" in2="effect1_dropShadow_553_58" result="shape"/>
</filter>
<filter id="filter1_d_553_58" x="18.6631" y="5.00049" width="16.2383" height="22.7134" filterUnits="userSpaceOnUse" color-interpolation-filters="sRGB">
<feFlood flood-opacity="0" result="BackgroundImageFix"/>
<feColorMatrix in="SourceAlpha" type="matrix" values="0 0 0 0 0 0 0 0 0 0 0 0 0 0 0 0 0 0 127 0" result="hardAlpha"/>
<feOffset/>
<feGaussianBlur stdDeviation="0.5"/>
<feColorMatrix type="matrix" values="0 0 0 0 0 0 0 0 0 0 0 0 0 0 0 0 0 0 0.38 0"/>
<feBlend mode="normal" in2="BackgroundImageFix" result="effect1_dropShadow_553_58"/>
<feBlend mode="normal" in="SourceGraphic" in2="effect1_dropShadow_553_58" result="shape"/>
</filter>
<filter id="filter2_d_553_58" x="18.6631" y="19.3716" width="27.6235" height="16.1719" filterUnits="userSpaceOnUse" color-interpolation-filters="sRGB">
<feFlood flood-opacity="0" result="BackgroundImageFix"/>
<feColorMatrix in="SourceAlpha" type="matrix" values="0 0 0 0 0 0 0 0 0 0 0 0 0 0 0 0 0 0 127 0" result="hardAlpha"/>
<feOffset/>
<feGaussianBlur stdDeviation="0.5"/>
<feColorMatrix type="matrix" values="0 0 0 0 0 0 0 0 0 0 0 0 0 0 0 0 0 0 0.38 0"/>
<feBlend mode="normal" in2="BackgroundImageFix" result="effect1_dropShadow_553_58"/>
<feBlend mode="normal" in="SourceGraphic" in2="effect1_dropShadow_553_58" result="shape"/>
</filter>
</defs>
</svg>
