<svg width="29" height="29" viewBox="0 0 29 29" fill="none" xmlns="http://www.w3.org/2000/svg">
<path d="M25.7538 0.036377H3.09045C1.35207 0.036377 0 1.45284 0 3.12683V25.7902C0 27.5285 1.35207 28.8806 3.09045 28.8806H25.7538C27.4278 28.8806 28.8442 27.5285 28.8442 25.7902V3.12683C28.8442 1.45284 27.4278 0.036377 25.7538 0.036377ZM22.5989 10.2735C22.5989 10.4667 22.5989 10.6598 22.5989 10.853C22.5989 16.39 18.3496 22.8285 10.5591 22.8285C8.17683 22.8285 5.98775 22.1846 4.12061 20.9613C4.44253 21.0257 4.76445 21.0257 5.08637 21.0257C7.08229 21.0257 8.88506 20.3175 10.3659 19.2229C8.49875 19.1586 6.95352 17.9353 6.37406 16.2613C7.08229 16.39 7.66175 16.39 8.3056 16.1969C6.37406 15.8106 4.9576 14.1366 4.9576 12.0763V12.0119C5.47268 12.3338 6.11652 12.527 6.82475 12.527C5.66583 11.7543 4.9576 10.4667 4.9576 9.0502C4.9576 8.2132 5.15076 7.50497 5.53706 6.86113C7.59737 9.43651 10.7522 11.1105 14.229 11.3037C13.6495 8.47074 15.7742 6.08852 18.3496 6.08852C19.5729 6.08852 20.6674 6.60359 21.44 7.44059C22.4058 7.24744 23.3072 6.92551 24.1442 6.41044C23.8223 7.44059 23.114 8.2132 22.277 8.72828C23.114 8.66389 23.951 8.40636 24.7236 8.08443C24.1442 8.92143 23.3716 9.69405 22.5989 10.2735Z" fill="#029894"/>
</svg>
